<?xml version="1.0" standalone="no"?>
<!DOCTYPE svg PUBLIC "-//W3C//DTD SVG 20010904//EN"
 "http://www.w3.org/TR/2001/REC-SVG-20010904/DTD/svg10.dtd">
<svg version="1.0" xmlns="http://www.w3.org/2000/svg"
 width="495.000000pt" height="495.000000pt" viewBox="0 0 495.000000 495.000000"
 preserveAspectRatio="xMidYMid meet">
<metadata>
Created by potrace 1.14, written by Peter Selinger 2001-2017
</metadata>
<g transform="translate(0.000000,495.000000) scale(0.100000,-0.100000)"
fill="#000000" stroke="none">
<path d="M4115 4630 c-57 -17 -202 -87 -232 -111 -41 -35 22 -28 79 8 21 12
42 23 46 23 5 0 30 11 56 25 53 28 56 29 56 15 0 -6 -8 -14 -17 -17 -20 -8
-131 -71 -152 -87 -33 -26 -121 -117 -121 -126 0 -6 -4 -10 -10 -10 -5 0 -10
4 -10 9 0 6 5 13 10 16 13 8 13 55 1 55 -15 0 -49 -48 -62 -88 -10 -32 -13
-34 -20 -17 -7 19 -8 19 -8 -2 -1 -13 -5 -23 -11 -23 -5 0 -10 -7 -10 -15 0
-8 -5 -15 -11 -15 -6 0 -9 -9 -6 -20 3 -11 1 -20 -4 -20 -5 0 -9 -7 -9 -15 0
-8 4 -15 9 -15 8 0 18 22 35 74 4 10 9 16 13 13 5 -6 -7 -47 -30 -94 -7 -17
-14 -20 -23 -12 -20 17 -23 -4 -4 -29 20 -24 20 -24 56 23 19 25 17 19 -33
-85 -22 -47 -43 -94 -46 -105 -11 -40 -68 -170 -81 -184 -8 -7 -28 -14 -46
-15 -18 -1 -37 -8 -43 -17 -15 -19 -47 -32 -47 -18 0 5 -11 14 -25 19 -14 5
-24 15 -23 22 4 15 -42 24 -51 9 -9 -14 -71 26 -72 47 -1 10 -1 28 -1 42 0 14
-9 36 -19 49 -11 13 -19 29 -19 36 0 17 -23 25 -49 18 -16 -4 -21 -13 -21 -37
0 -38 15 -56 50 -57 22 -2 23 -2 3 -6 -19 -4 -21 -9 -16 -36 8 -44 26 -62 97
-97 57 -29 62 -30 74 -13 11 15 12 13 6 -15 -6 -31 7 -62 27 -62 12 0 11 37
-1 45 -5 3 -10 13 -10 21 0 12 6 11 29 -5 16 -12 35 -19 43 -16 20 7 39 -9 46
-42 11 -48 149 -164 262 -220 52 -26 110 -57 128 -70 38 -28 43 -55 10 -52
-68 6 -91 -15 -63 -57 14 -22 114 -111 185 -165 35 -27 35 -27 8 -22 -16 3
-28 1 -28 -3 1 -32 163 -203 228 -241 l47 -28 -42 -3 c-35 -3 -43 -7 -43 -22
0 -11 9 -24 20 -30 23 -12 27 -32 5 -24 -9 4 -15 0 -15 -9 0 -19 64 -77 120
-108 l43 -24 -104 -6 c-60 -3 -134 -14 -174 -26 -38 -12 -90 -24 -115 -28 -25
-4 -62 -11 -82 -17 -31 -9 -46 -7 -104 16 -38 15 -85 41 -106 58 -55 43 -128
78 -165 78 -18 0 -33 3 -32 8 0 10 95 83 178 137 67 44 76 46 124 42 29 -3 71
-11 94 -18 23 -7 45 -10 49 -6 18 18 -100 121 -196 171 -69 36 -90 54 -83 72
4 10 -3 14 -24 14 -16 0 -56 13 -89 29 -32 15 -84 39 -114 51 -61 25 -90 52
-90 82 0 13 -6 18 -17 16 -14 -3 -18 -14 -18 -52 l0 -48 80 -28 c44 -15 116
-48 160 -73 44 -25 104 -58 133 -73 28 -15 52 -31 52 -36 0 -4 8 -8 18 -8 10
0 33 -11 50 -24 l33 -24 -56 2 c-31 0 -59 -4 -63 -9 -4 -6 -40 -32 -81 -60
-40 -27 -96 -69 -124 -94 -27 -25 -66 -51 -86 -56 -20 -6 -36 -17 -36 -25 0
-8 -7 -15 -15 -15 -10 0 -16 11 -17 33 -1 20 3 32 12 32 7 0 20 10 28 23 14
18 18 20 26 7 5 -8 13 -11 18 -7 4 5 1 12 -7 17 -12 8 -9 15 16 42 17 18 44
51 60 73 16 22 44 56 61 75 35 38 40 50 21 49 -7 0 -40 -34 -73 -76 -90 -114
-135 -163 -149 -163 -9 0 -13 23 -12 88 1 79 -1 87 -18 87 -22 0 -62 -67 -72
-121 -9 -50 -20 -50 -45 -2 -35 69 -108 150 -133 146 -34 -5 -41 -75 -28 -293
7 -104 14 -201 16 -215 8 -49 17 -170 12 -170 -2 0 -18 19 -34 43 -99 146
-103 154 -127 302 -7 44 -18 107 -24 140 -31 181 -44 313 -44 473 0 163 -1
172 -19 172 -19 0 -20 8 -16 223 5 278 7 284 111 303 36 6 37 5 37 -24 0 -17
3 -37 6 -46 7 -17 44 -22 44 -6 0 6 -7 10 -15 10 -23 0 -29 27 -11 45 9 9 16
21 16 25 0 20 -53 43 -98 43 -26 0 -50 5 -54 11 -5 7 -18 0 -37 -18 -32 -31
-32 -59 0 -30 19 17 27 7 10 -12 -5 -5 -14 -26 -21 -46 -6 -21 -25 -50 -41
-65 -35 -34 -41 -83 -9 -83 19 0 20 -7 20 -167 0 -120 4 -182 15 -217 8 -27
20 -106 25 -175 6 -69 17 -169 24 -221 8 -52 21 -144 30 -205 9 -60 21 -130
28 -155 16 -55 17 -212 2 -231 -6 -8 -18 -35 -28 -61 -10 -27 -21 -48 -25 -48
-5 0 -16 35 -26 78 -9 42 -21 91 -26 107 -10 36 -32 153 -54 285 -38 234 -36
232 -96 175 -22 -22 -46 -51 -52 -65 -10 -24 -10 -24 -18 15 -13 65 -11 74 16
81 14 3 25 10 25 14 0 10 -48 22 -60 15 -6 -3 -15 7 -22 22 -38 92 -64 142
-75 142 -8 1 -9 -9 -1 -36 5 -21 14 -42 18 -48 4 -5 20 -50 34 -100 15 -49 34
-102 42 -116 13 -25 12 -28 -8 -41 l-23 -15 20 -38 c11 -21 35 -45 56 -55 52
-27 63 -43 47 -72 -39 -69 -62 -74 -107 -23 -21 24 -30 43 -27 58 15 76 15 87
-2 96 -12 6 -26 5 -42 -4 -21 -11 -29 -11 -52 3 -37 21 -46 44 -58 137 -17
133 -22 155 -33 155 -10 0 -3 -177 10 -229 l6 -25 -29 19 c-65 42 -234 207
-234 228 0 9 22 20 58 29 31 9 82 23 112 32 30 9 81 24 113 33 39 11 65 25 83
45 23 29 24 32 9 54 -23 36 -28 149 -20 434 7 252 8 256 32 284 28 33 43 28
19 -8 -9 -14 -16 -30 -16 -36 0 -16 32 -11 46 8 12 15 13 14 14 -11 0 -16 4
-26 10 -22 12 7 14 95 2 95 -5 0 -9 7 -9 15 0 10 6 14 14 10 11 -3 13 1 8 15
-4 12 -2 20 4 20 7 0 9 14 5 38 -3 20 -7 46 -8 56 -6 42 -37 26 -42 -21 -2
-13 -10 -30 -19 -40 -9 -9 -14 -24 -12 -34 3 -11 1 -19 -4 -19 -5 0 -9 5 -9
11 0 6 -7 9 -15 6 -12 -5 -12 -2 -3 18 9 20 8 29 -7 45 -10 11 -24 20 -32 20
-11 0 -11 5 -3 20 8 14 7 25 -2 40 -21 34 -42 20 -51 -35 -4 -27 -13 -53 -19
-56 -6 -4 -8 -13 -6 -20 6 -17 -14 -38 -56 -58 -25 -13 -30 -21 -28 -44 2 -19
-2 -27 -13 -27 -8 0 -15 -4 -15 -10 0 -13 -33 -46 -51 -52 -8 -3 -19 2 -26 11
-6 9 -15 13 -19 9 -4 -4 -1 -14 6 -23 10 -12 10 -15 -4 -15 -17 0 -23 -35 -7
-44 13 -8 71 26 71 42 0 6 5 12 11 12 15 0 123 119 133 148 5 13 14 36 21 49
12 22 14 23 19 6 21 -71 28 -188 27 -483 -1 -311 -2 -326 -21 -339 -11 -8 -20
-25 -20 -40 0 -24 -6 -28 -77 -50 -43 -12 -89 -26 -103 -31 -14 -5 -59 -19
-100 -31 -66 -19 -114 -39 -172 -70 -10 -5 -23 -9 -31 -9 -20 0 -277 -130
-277 -140 0 -19 43 -10 129 27 47 20 91 40 97 44 6 5 37 -9 75 -34 36 -23 82
-51 103 -61 20 -11 42 -28 47 -38 6 -10 15 -15 21 -12 6 4 8 3 5 -2 -3 -6 -1
-16 4 -24 8 -13 10 -13 18 0 8 12 13 12 36 0 14 -7 21 -16 17 -19 -5 -3 -11
-12 -13 -20 -3 -9 -24 -14 -64 -15 -33 -1 -91 -10 -130 -19 -111 -26 -154 -23
-206 16 -79 59 -128 72 -274 71 -131 0 -133 -1 -330 -57 -27 -8 -79 -27 -115
-44 -36 -16 -89 -40 -117 -53 -29 -13 -53 -29 -53 -36 0 -8 19 -15 47 -19 27
-4 70 -18 97 -31 28 -13 57 -24 65 -24 14 0 14 -1 1 -10 -8 -5 -26 -10 -39
-10 -40 0 -151 -38 -151 -51 0 -13 54 -11 67 2 7 7 17 8 28 2 13 -8 8 -12 -26
-22 -74 -22 -150 -22 -181 0 -38 28 -96 36 -103 16 -7 -18 -45 -11 -45 8 0 16
55 36 75 29 10 -4 15 1 15 15 0 15 -11 27 -35 38 -19 9 -35 20 -35 25 0 4 25
8 55 8 44 0 55 3 55 16 0 11 -5 14 -16 10 -9 -4 -42 -2 -73 3 -31 6 -82 13
-115 17 -44 4 -55 9 -47 17 7 7 25 13 42 13 65 3 74 5 64 12 -14 10 -17 32 -5
32 6 0 19 8 29 18 36 32 51 43 51 36 0 -3 21 12 48 33 26 22 81 58 122 80 41
22 102 55 135 73 121 65 162 115 116 140 -25 13 -68 13 -73 0 -2 -5 -19 -7
-40 -4 -41 7 -40 9 25 58 41 31 46 42 20 49 -15 3 -13 6 7 14 14 6 32 18 39
27 11 13 11 17 -3 22 -9 3 -26 4 -37 1 -12 -3 -27 -3 -35 0 -19 7 19 28 68 37
44 8 69 33 48 46 -26 16 -4 19 25 4 30 -16 147 -15 188 1 12 5 17 2 17 -8 0
-8 5 -17 11 -19 5 -2 7 -11 4 -20 -4 -9 -13 -14 -21 -11 -16 6 -64 -22 -64
-38 0 -6 9 -9 20 -6 13 3 21 -1 25 -14 8 -24 37 -25 51 -1 6 9 17 41 23 69 7
29 17 50 22 47 5 -3 9 7 9 23 0 15 10 53 23 84 19 48 25 55 42 48 36 -14 102
-10 109 6 10 27 33 17 34 -15 1 -25 -3 -30 -24 -30 -19 0 -24 -5 -24 -25 0
-28 21 -33 40 -10 33 40 42 -11 10 -63 -28 -45 -25 -57 8 -33 26 18 30 19 45
4 16 -16 47 -12 47 7 0 5 -9 19 -19 29 -16 16 -20 36 -21 123 -1 57 -1 110 -1
120 1 12 14 18 54 23 54 6 97 23 97 37 0 4 -7 8 -15 8 -8 0 -15 9 -15 20 0 11
4 20 10 20 5 0 7 6 4 13 -2 7 3 22 13 32 10 11 24 38 32 60 20 58 50 105 69
107 9 0 33 3 52 4 19 2 47 4 63 4 15 1 27 5 27 9 0 14 -27 20 -64 14 -32 -5
-37 -3 -46 23 -8 20 -8 30 -1 32 6 2 11 15 11 28 0 19 -5 24 -25 24 -15 0 -25
-6 -25 -14 0 -8 -6 -16 -14 -19 -20 -8 -51 -56 -42 -65 4 -3 23 11 42 33 l34
40 -7 -30 c-8 -35 -22 -60 -82 -138 -24 -32 -46 -55 -50 -52 -3 3 -1 9 4 13
17 12 65 111 57 116 -15 9 -42 -24 -46 -56 -1 -3 -4 -9 -7 -13 -8 -8 -69 50
-69 65 0 5 -7 10 -15 10 -8 0 -15 7 -15 15 0 8 -4 15 -9 15 -5 0 -7 9 -4 20 3
11 0 20 -6 20 -6 0 -11 7 -11 16 0 9 -6 14 -12 12 -16 -6 -23 -48 -9 -48 6 0
11 -4 11 -10 0 -5 -6 -10 -14 -10 -7 0 -19 -7 -26 -15 -7 -8 -16 -15 -21 -15
-5 0 -9 7 -9 15 0 17 -17 20 -22 4 -2 -7 -17 1 -33 17 -17 16 -48 38 -70 49
-22 11 -61 35 -87 53 -26 17 -52 32 -57 32 -6 0 -14 6 -18 13 -4 7 -26 24 -48
37 -22 13 -43 28 -46 33 -3 5 -9 8 -12 8 -16 -1 -97 39 -97 48 0 6 -6 8 -14 5
-18 -7 -29 25 -15 42 13 16 1 18 -20 5 -8 -5 -24 -3 -40 5 -33 18 -41 18 -41
-1 0 -16 -16 -21 -22 -7 -8 20 -185 85 -260 96 l-48 7 0 -30 c0 -21 -5 -31
-15 -31 -19 0 -19 8 0 54 9 21 22 36 33 37 14 0 14 2 -3 9 -19 8 -19 9 3 9 19
1 22 -3 17 -18 -13 -42 43 -38 66 5 13 25 12 28 -26 60 -47 40 -85 45 -85 12
0 -12 -6 -29 -13 -37 -17 -21 -34 -91 -53 -226 -8 -60 -19 -132 -24 -160 -21
-121 -9 -315 30 -480 11 -49 27 -119 35 -155 30 -131 42 -162 66 -180 16 -13
27 -15 35 -9 9 7 14 4 19 -10 3 -12 13 -21 20 -21 12 0 12 -5 4 -24 -11 -24
-44 -36 -95 -36 -24 0 -30 -15 -16 -38 7 -10 20 -10 60 -1 29 6 52 15 52 20 0
5 7 9 15 9 8 0 15 4 15 8 0 8 104 6 128 -3 18 -7 15 -16 -23 -60 -19 -22 -34
-44 -32 -50 2 -5 22 -9 45 -7 34 3 43 0 57 -22 14 -21 20 -23 35 -13 16 9 42
4 29 -6 -14 -11 -166 -100 -174 -102 -5 -1 -27 -9 -47 -19 -43 -18 -64 -20
-73 -6 -3 6 2 10 12 10 28 0 193 83 193 97 0 7 7 10 17 6 13 -5 15 -2 10 11
-4 10 -7 20 -7 22 0 2 -6 4 -14 4 -8 0 -17 -11 -20 -25 -4 -15 -11 -23 -17
-19 -6 4 -14 3 -18 -2 -20 -28 -159 -78 -187 -67 -8 3 -18 -6 -26 -23 -10 -21
-10 -28 -1 -31 20 -7 3 -31 -27 -38 -16 -3 -31 -13 -34 -21 -3 -8 -19 -20 -36
-25 -16 -6 -30 -17 -30 -25 0 -8 -4 -14 -9 -14 -4 0 -25 -11 -45 -25 -21 -14
-46 -27 -57 -28 -11 -2 -25 -9 -31 -15 -7 -7 -18 -12 -25 -12 -8 0 -13 -7 -11
-15 2 -9 -8 -21 -21 -28 -32 -16 -39 -37 -10 -30 14 4 25 0 31 -11 7 -13 18
-16 41 -11 30 6 31 5 13 -10 -11 -8 -39 -15 -63 -15 -36 0 -43 -3 -43 -20 0
-16 7 -20 31 -20 30 0 31 -1 25 -34 -4 -20 -2 -37 4 -41 26 -16 4 -25 -65 -25
-43 0 -75 -4 -75 -10 0 -5 -25 -10 -56 -10 -47 0 -55 -3 -52 -17 3 -19 38 -30
101 -32 20 0 37 -5 37 -10 0 -17 -49 -49 -85 -55 -30 -6 -35 -11 -35 -34 0
-16 13 -43 31 -65 17 -20 28 -41 25 -46 -4 -5 -23 -15 -44 -22 -20 -6 -39 -15
-42 -18 -3 -3 -26 -16 -52 -29 -27 -13 -48 -27 -48 -32 0 -12 44 -21 48 -10 6
18 58 11 77 -10 10 -11 23 -20 29 -19 6 1 20 1 31 0 19 -2 18 -3 -5 -22 -14
-12 -24 -23 -22 -25 7 -12 0 -23 -12 -18 -9 3 -17 -3 -21 -15 -3 -12 -11 -19
-16 -15 -6 3 -16 0 -24 -6 -8 -7 -15 -9 -15 -4 0 5 -6 2 -13 -7 -7 -8 -20 -18
-30 -22 -22 -8 -22 -20 4 -43 14 -12 24 -15 34 -9 7 6 34 25 61 43 60 42 164
132 164 142 0 5 -19 10 -42 13 -59 7 -78 12 -86 23 -4 5 -19 15 -34 23 l-27
14 52 26 c66 33 87 51 87 73 0 10 7 18 15 18 8 0 12 -6 9 -14 -9 -22 9 -26 53
-11 97 33 386 27 422 -10 17 -17 4 -20 -103 -30 -85 -7 -109 -18 -78 -34 14
-8 36 -8 73 -1 59 11 159 10 159 -2 0 -4 -24 -8 -54 -8 -55 0 -116 -16 -116
-30 0 -9 68 -23 113 -24 15 -1 31 -7 36 -14 4 -7 15 -10 27 -6 18 6 18 6 -1
-9 -11 -9 -26 -17 -33 -17 -24 0 -6 -25 31 -42 20 -10 58 -23 84 -29 79 -19
81 -22 14 -33 -61 -10 -95 -34 -54 -38 10 -1 25 -2 33 -4 8 -1 56 -2 105 -3
64 -1 86 -4 75 -11 -8 -6 -31 -10 -50 -9 -19 1 -42 -1 -50 -4 -8 -3 -72 -15
-141 -27 -119 -19 -264 -50 -319 -69 -14 -5 -44 -14 -68 -20 -23 -7 -40 -15
-38 -19 3 -5 1 -14 -5 -22 -7 -13 -9 -12 -9 3 0 10 -8 17 -20 17 -11 0 -20 -4
-20 -10 0 -5 5 -10 10 -10 6 0 10 -5 10 -11 0 -5 -4 -8 -9 -4 -6 3 -15 -4 -21
-15 -6 -11 -17 -20 -24 -20 -13 0 -46 -31 -46 -43 0 -26 139 26 140 52 0 10 3
11 14 2 11 -9 16 -9 21 0 4 6 1 15 -6 20 -11 7 -11 9 3 9 9 0 20 -4 23 -10 3
-5 17 -10 30 -10 23 0 23 -1 9 -30 -9 -16 -20 -30 -26 -30 -5 0 -7 -7 -4 -16
4 -11 2 -15 -8 -11 -10 4 -13 1 -9 -9 6 -16 23 -19 23 -4 0 5 16 27 35 49 19
21 35 44 35 50 0 14 -48 34 -61 25 -5 -3 -9 -1 -9 4 0 5 19 14 43 19 23 6 78
21 122 33 128 33 330 68 408 69 24 1 27 -2 22 -20 -4 -13 -1 -27 10 -38 8 -10
15 -25 13 -32 -2 -8 7 -15 21 -17 l23 -4 -27 -14 c-33 -17 -250 -21 -225 -3
13 8 12 10 -4 7 -22 -4 -44 -34 -32 -45 4 -4 132 -7 284 -6 210 2 300 -1 372
-13 52 -8 122 -19 155 -24 33 -6 77 -10 98 -10 20 1 37 -3 37 -8 0 -5 27 -15
60 -22 33 -7 63 -17 66 -21 3 -5 15 -9 26 -9 12 0 19 -2 16 -5 -3 -3 -71 0
-151 6 -111 8 -166 8 -229 -1 -46 -6 -121 -16 -168 -21 -138 -14 -316 -57
-503 -121 -49 -16 -91 -28 -93 -25 -3 3 9 10 26 16 18 6 41 22 52 36 11 14 25
25 33 25 7 0 15 9 18 21 4 15 2 19 -10 15 -8 -3 -27 -6 -41 -6 -17 0 -42 -14
-70 -40 l-42 -39 -81 42 c-44 23 -90 48 -102 54 -26 15 -77 17 -77 3 0 -5 16
-10 35 -10 19 0 35 -5 35 -10 0 -6 16 -25 36 -42 19 -17 41 -43 49 -58 9 -17
29 -31 55 -40 26 -9 56 -30 81 -58 31 -36 42 -42 53 -33 11 9 15 8 20 -5 5
-13 9 -14 21 -4 11 9 15 9 15 1 0 -6 10 -16 22 -21 13 -6 30 -14 38 -19 8 -5
34 -18 57 -28 27 -11 43 -25 43 -35 0 -19 18 -22 58 -12 32 9 29 38 -3 32 -41
-8 -29 8 35 48 34 21 57 41 52 46 -8 8 -86 -25 -96 -41 -4 -5 -19 -12 -34 -16
-22 -4 -45 4 -103 37 -41 23 -80 48 -88 56 -8 7 -26 18 -40 24 l-26 10 35 17
c38 18 70 29 195 65 190 56 293 74 478 80 97 4 103 3 126 -20 l25 -25 -78 2
c-58 1 -80 -2 -87 -12 -4 -8 -30 -18 -56 -24 -28 -6 -49 -16 -51 -25 -2 -13
23 -15 175 -15 l178 0 41 -30 41 -30 -76 -13 c-42 -7 -100 -16 -128 -18 -35
-4 -53 -10 -53 -19 0 -15 6 -15 186 5 45 5 90 6 100 3 10 -3 34 -23 52 -44
l34 -38 -69 -33 c-83 -39 -63 -48 31 -13 67 25 68 25 73 5 3 -11 9 -20 13 -20
10 0 124 -169 118 -175 -11 -11 -337 -20 -458 -13 -14 1 -33 -2 -43 -6 -13 -6
-16 -5 -11 8 5 12 0 16 -22 16 -16 0 -42 7 -58 15 -35 19 -46 19 -46 1 0 -8
11 -17 25 -20 41 -10 29 -26 -20 -26 -25 0 -45 -3 -45 -7 0 -11 58 -43 76 -43
9 0 13 -4 9 -9 -12 -21 18 -22 38 -2 l21 21 -23 0 c-14 0 -22 3 -18 6 3 4 48
8 99 9 51 1 179 6 283 10 186 8 190 7 209 -14 11 -11 17 -23 15 -25 -2 -3 -42
-12 -89 -21 -179 -34 -195 -37 -204 -46 -15 -13 -3 -19 53 -28 35 -6 73 -4
114 5 76 16 107 17 107 4 0 -6 -11 -15 -25 -20 -14 -5 -25 -14 -25 -20 0 -16
18 -12 55 13 26 18 32 26 23 35 -18 18 52 15 76 -3 18 -14 18 -16 3 -33 -34
-37 -7 -79 34 -54 16 10 21 8 33 -16 8 -15 25 -37 38 -50 l25 -22 38 25 c38
27 65 27 65 1 0 -8 4 -16 9 -18 5 -1 22 -26 37 -54 70 -126 97 -164 144 -208
65 -61 104 -76 209 -83 115 -8 217 15 282 63 50 37 64 60 100 171 24 73 38 86
74 72 11 -4 46 -8 78 -8 42 -1 57 3 57 13 0 9 -19 16 -52 21 -29 5 -56 8 -60
7 -3 -1 -12 5 -18 13 -10 13 -8 15 13 15 45 0 121 40 172 90 28 27 93 72 145
100 149 81 299 182 306 207 3 12 29 38 58 57 28 19 60 43 72 53 22 19 25 22
100 69 27 18 59 41 72 53 12 12 29 21 37 21 7 0 16 4 19 9 3 5 31 23 61 40 82
47 77 60 -47 120 -57 27 -139 62 -183 76 -44 15 -84 29 -88 32 -14 8 44 34 93
42 26 4 44 12 43 19 -3 12 190 108 237 118 51 12 90 26 90 33 0 11 -80 41
-107 41 -12 0 -25 5 -28 10 -3 6 -25 10 -48 10 -23 0 -59 3 -80 7 l-39 6 36
12 c26 9 49 10 82 3 54 -12 94 -4 94 18 0 14 -8 15 -47 9 -63 -9 -53 -1 53 42
49 19 112 44 139 55 28 12 74 26 103 32 89 18 66 51 -51 72 -58 10 -52 21 16
28 60 7 172 36 230 59 21 9 27 19 27 42 0 29 -3 31 -102 63 -57 19 -123 42
-148 52 -25 10 -84 32 -132 50 -48 18 -85 36 -82 41 3 5 35 9 72 10 76 1 114
9 119 26 3 7 -16 14 -51 18 -61 8 -69 31 -13 37 45 4 42 31 -5 42 -21 5 -38
13 -38 16 0 4 34 13 76 21 41 7 79 18 85 25 7 8 -18 28 -88 69 -54 32 -114 68
-134 81 -19 13 -39 24 -45 24 -17 1 -56 39 -49 50 3 5 22 10 41 10 60 0 39 26
-61 74 -52 25 -95 48 -95 50 0 2 39 2 88 1 76 -2 173 -19 223 -40 22 -8 35 13
18 29 -8 7 -32 18 -54 24 -23 6 -61 24 -85 40 -25 16 -102 64 -172 108 -71 43
-138 87 -150 96 -22 16 -22 17 -3 24 11 4 53 22 93 40 95 44 98 65 10 82 -123
24 -118 22 -106 42 14 23 -3 47 -35 52 -17 2 -22 10 -22 32 -1 40 -19 43 -35
6 -12 -29 -42 -41 -54 -21 -3 4 -25 12 -48 16 -39 6 -41 8 -23 18 49 29 154
141 161 171 3 17 10 36 14 41 4 6 13 39 20 75 6 36 14 74 16 85 2 11 11 52 19
90 8 39 17 83 21 98 6 25 4 28 -12 25 -14 -2 -20 -13 -22 -38 -1 -19 -6 -44
-11 -55 -4 -11 -18 -74 -31 -140 -31 -167 -58 -225 -103 -225 -18 0 -19 1 -3
23 33 44 55 103 57 152 1 28 15 90 31 139 16 49 29 105 29 125 0 20 2 62 5 93
6 56 5 57 -23 65 l-28 7 30 6 c27 5 30 9 30 45 0 22 4 43 8 46 10 7 39 288 32
307 -2 6 -14 12 -25 12 -11 0 -20 5 -20 10 0 6 18 10 39 10 l39 0 -9 -41 c-5
-22 -11 -88 -14 -147 -5 -124 -11 -191 -24 -282 -10 -71 -1 -95 22 -59 13 21
27 131 31 239 0 19 5 38 11 42 6 4 5 24 -3 53 -7 26 -10 50 -7 55 3 5 10 37
14 72 5 35 12 73 16 86 7 21 5 22 -36 21 -24 0 -71 -9 -104 -19z m-3471 -356
c4 -10 1 -14 -6 -12 -15 5 -23 28 -10 28 5 0 13 -7 16 -16z m-10 -39 c3 -8 1
-15 -4 -15 -6 0 -10 7 -10 15 0 8 2 15 4 15 2 0 6 -7 10 -15z m461 -146 c19
-39 37 -80 41 -92 4 -12 17 -44 29 -72 33 -74 36 -84 50 -150 25 -114 35 -145
65 -200 16 -30 30 -64 30 -75 0 -11 5 -21 10 -21 6 -1 16 -2 23 -3 6 0 13 -16
15 -34 3 -31 2 -33 -17 -23 -11 6 -28 11 -39 11 -19 0 -76 24 -99 43 -10 7 -9
14 2 30 31 44 9 129 -48 180 -27 25 -29 28 -9 22 26 -7 42 19 23 38 -6 6 -11
31 -11 55 0 40 -42 184 -60 207 -8 9 -60 142 -60 151 0 2 5 4 10 4 6 0 26 -32
45 -71z m-465 -9 c0 -5 -2 -10 -4 -10 -3 0 -8 5 -11 10 -3 6 -1 10 4 10 6 0
11 -4 11 -10z m0 -49 c0 -8 -23 -21 -36 -21 -2 0 -4 11 -4 25 0 23 2 24 20 15
11 -6 20 -15 20 -19z m1809 -71 c4 0 12 5 19 12 9 9 12 9 12 0 0 -7 -7 -15
-15 -18 -8 -4 -15 -14 -15 -23 -1 -9 -7 -2 -14 14 -7 17 -11 35 -7 40 3 6 7 2
9 -7 2 -10 7 -18 11 -18z m780 -15 c17 -10 13 -25 -8 -25 -23 0 -32 20 -24 51
6 22 6 22 14 2 4 -12 12 -24 18 -28z m-2597 -2 c44 -43 48 -63 13 -63 -21 0
-24 -4 -22 -27 5 -37 17 -65 35 -79 11 -8 12 -13 4 -18 -16 -10 -15 -26 2 -26
7 0 19 -7 26 -16 8 -8 29 -22 49 -30 28 -12 33 -17 21 -24 -8 -5 -28 -10 -45
-10 -39 0 -58 -13 -53 -36 3 -16 14 -20 60 -22 l57 -3 -20 -34 -21 -34 26 -24
c31 -29 32 -33 6 -40 -14 -3 -20 -14 -20 -31 0 -14 5 -26 10 -26 6 0 10 -6 10
-14 0 -7 10 -21 23 -30 22 -15 22 -16 2 -31 -38 -30 -67 -30 -90 -1 -14 17
-20 36 -17 52 2 13 0 24 -6 24 -5 0 -12 22 -16 50 -4 27 -11 52 -16 55 -17 10
-12 45 5 39 8 -4 15 -1 15 5 0 10 -5 12 -27 11 -8 -1 -14 25 -26 95 -2 17 -2
24 0 18 8 -24 23 -13 23 16 0 30 -24 49 -34 28 -4 -7 -4 18 -2 55 3 50 0 68
-10 72 -19 7 -19 66 0 66 24 0 30 21 7 27 -12 3 -21 13 -21 24 0 27 9 24 52
-18z m1113 -52 c-3 -6 4 -26 15 -46 25 -44 25 -56 0 -105 -11 -21 -16 -41 -12
-44 12 -7 25 5 50 44 29 46 28 29 -3 -45 -21 -52 -28 -61 -57 -67 -18 -4 -39
-5 -45 -3 -15 5 -17 35 -3 35 19 0 10 22 -10 27 -12 3 -27 18 -35 32 -13 26
-11 30 22 72 19 24 41 59 48 77 8 17 19 32 25 32 6 0 9 -4 5 -9z m-1150 -71
c3 -5 1 -10 -4 -10 -6 0 -11 5 -11 10 0 6 2 10 4 10 3 0 8 -4 11 -10z m3093
-56 l-23 -39 -3 30 c-3 21 3 35 19 48 32 25 35 8 7 -39z m-2263 -313 c3 -5 1
-12 -5 -16 -5 -3 -10 1 -10 9 0 18 6 21 15 7z m-608 -57 c-3 -3 -12 -4 -19 -1
-8 3 -5 6 6 6 11 1 17 -2 13 -5z m1373 -532 l95 -93 -51 6 c-55 7 -340 142
-337 160 1 5 23 17 50 26 26 9 62 24 78 33 29 16 30 16 50 -11 11 -16 62 -70
115 -121z m1118 -163 c-17 -11 -24 9 -9 24 6 6 12 31 13 57 2 39 2 38 5 -14 3
-41 0 -62 -9 -67z m-808 -10 c0 -24 -23 -21 -28 4 -2 10 3 17 12 17 10 0 16
-9 16 -21z m1856 -20 c4 -7 -2 -9 -16 -7 -13 1 -24 11 -26 20 -2 14 1 16 16 8
11 -6 22 -15 26 -21z m-1071 1 c3 -5 -1 -10 -10 -10 -9 0 -13 5 -10 10 3 6 8
10 10 10 2 0 7 -4 10 -10z m-1052 -7 c-7 -2 -19 -2 -25 0 -7 3 -2 5 12 5 14 0
19 -2 13 -5z m2290 -68 c53 -10 46 -25 -13 -25 -35 0 -50 4 -50 13 0 8 -18 22
-40 32 -22 10 -37 22 -34 26 3 5 26 -2 52 -16 26 -13 64 -27 85 -30z m-106
-11 c-3 -3 -12 -4 -19 -1 -8 3 -5 6 6 6 11 1 17 -2 13 -5z m-3907 -28 c0 -11
-19 -15 -25 -6 -3 5 1 10 9 10 9 0 16 -2 16 -4z m3948 -12 c24 -7 30 -24 9
-24 -20 0 -52 -39 -41 -49 5 -4 36 -13 68 -20 33 -6 62 -13 64 -16 14 -13 -12
-17 -58 -8 l-51 10 4 -38 4 -39 -141 0 c-78 1 -159 5 -181 10 -22 5 -65 14
-95 21 -99 20 -158 40 -164 55 -10 27 -7 44 9 44 8 0 15 -4 15 -10 0 -5 9 -14
21 -20 17 -10 23 -7 40 14 17 22 114 64 124 54 3 -2 -19 -20 -47 -39 -28 -19
-53 -40 -56 -47 -7 -23 28 -12 65 22 48 42 113 83 144 89 29 7 235 -1 267 -9z
m-3878 -80 c0 -2 -7 -4 -15 -4 -8 0 -15 4 -15 10 0 5 7 7 15 4 8 -4 15 -8 15
-10z m2867 -29 c9 -24 0 -25 -26 -4 -23 19 -23 19 -2 19 12 0 24 -7 28 -15z
m-1104 -42 c-7 -2 -21 -2 -30 0 -10 3 -4 5 12 5 17 0 24 -2 18 -5z m1102 -3
c-3 -5 -18 -9 -33 -9 l-27 1 30 8 c17 4 31 8 33 9 2 0 0 -3 -3 -9z m-2660 -11
c11 -16 3 -17 -40 -4 l-40 13 37 1 c20 1 40 -4 43 -10z m-102 -23 c4 -10 0
-12 -14 -9 -10 3 -16 9 -13 14 8 13 21 11 27 -5z m137 -6 c0 -5 -4 -10 -10
-10 -5 0 -10 5 -10 10 0 6 5 10 10 10 6 0 10 -4 10 -10z m1406 -11 c3 -6 30
-22 58 -35 l51 -23 -35 -1 c-25 0 -31 -3 -20 -9 8 -6 18 -7 24 -4 5 3 6 1 2
-5 -11 -18 -72 -14 -87 5 -13 15 -12 15 8 2 27 -17 38 -7 23 20 -12 23 -40 29
-41 9 0 -7 -4 -2 -10 10 -13 34 9 60 27 31z m1317 -21 c-14 -65 -53 -95 -99
-78 -32 13 -27 32 13 43 17 5 41 20 54 33 30 29 38 30 32 2z m727 14 c0 -5
-33 -14 -72 -19 -40 -6 -93 -16 -117 -22 -25 -7 -56 -10 -70 -8 -23 3 -19 6
29 30 46 22 69 26 143 26 48 1 87 -3 87 -7z m-3615 -38 c37 -7 38 -8 15 -16
-20 -7 -22 -11 -10 -18 12 -8 10 -10 -7 -10 -26 0 -29 -10 -10 -29 10 -11 5
-12 -28 -7 -22 3 -60 9 -85 11 -47 6 -120 34 -120 47 0 5 17 7 38 7 20 -1 55
6 77 14 39 15 50 15 130 1z m3895 -31 c25 -11 88 -37 140 -57 52 -20 104 -40
115 -45 14 -5 -2 -10 -52 -14 -78 -8 -103 -14 -103 -28 0 -13 52 -11 144 6 47
8 86 10 95 5 11 -6 5 -10 -24 -15 -22 -4 -51 -11 -65 -16 -14 -5 -65 -15 -115
-23 -245 -40 -295 -53 -295 -76 0 -9 38 -15 79 -12 19 1 163 -27 169 -33 3 -2
-1 -6 -9 -9 -80 -22 -196 -60 -204 -66 -5 -4 -21 -11 -35 -15 -14 -4 -54 -27
-90 -51 -36 -23 -83 -46 -105 -50 -22 -3 -44 -9 -49 -12 -15 -9 18 -22 57 -22
21 0 36 -4 33 -8 -2 -4 10 -6 29 -4 18 2 36 -1 39 -7 4 -6 24 -12 44 -12 l37
-2 -35 -6 c-19 -3 -36 -3 -38 1 -2 5 -9 8 -15 8 -5 0 -8 -3 -4 -6 8 -8 -18
-34 -34 -34 -15 0 -102 -31 -109 -40 -6 -6 -39 -22 -105 -50 -100 -43 -121
-53 -155 -80 -19 -14 -63 -43 -97 -63 -34 -21 -84 -57 -111 -82 l-49 -44 -18
39 c-10 22 -24 40 -32 40 -17 0 -17 -24 1 -39 21 -18 46 -98 46 -148 0 -43
-26 -123 -40 -123 -8 0 -20 28 -45 102 -16 48 -21 69 -53 223 -11 50 -22 97
-25 105 -20 55 -17 67 21 93 20 14 51 37 67 52 30 27 136 85 155 85 5 0 2 -16
-7 -35 -26 -55 -6 -54 45 2 60 66 191 146 504 306 21 10 57 21 80 23 23 2 50
7 60 10 45 14 6 20 -139 21 -87 0 -178 4 -202 8 l-44 7 33 15 c19 7 41 11 49
8 9 -3 12 -3 8 1 -4 4 3 12 14 18 41 21 19 31 -64 30 -45 -1 -65 0 -44 3 20 2
37 7 37 11 0 4 21 14 48 21 26 8 63 26 82 40 19 14 37 26 39 28 15 10 -15 12
-63 5 -40 -7 -56 -6 -53 2 2 6 19 10 36 8 19 -1 30 2 26 7 -8 13 64 19 220 17
109 -1 137 -5 175 -23z m-4190 -17 c0 -3 -4 -8 -10 -11 -5 -3 -10 -1 -10 4 0
6 5 11 10 11 6 0 10 -2 10 -4z m3713 -3 c-7 -2 -21 -2 -30 0 -10 3 -4 5 12 5
17 0 24 -2 18 -5z m-3803 -22 c0 -5 9 -11 20 -14 11 -3 20 -10 20 -16 0 -14
-27 -14 -36 0 -3 6 -17 8 -31 5 -33 -9 -48 3 -26 20 20 15 53 19 53 5z m1535
-331 c22 -5 83 -18 135 -30 52 -11 127 -27 165 -35 39 -7 99 -21 135 -30 137
-33 117 -37 283 54 44 23 80 41 82 39 2 -2 25 -41 52 -88 60 -105 122 -240
129 -283 19 -108 84 -253 136 -300 34 -32 36 -32 168 2 131 35 204 50 213 44
12 -7 40 -74 34 -80 -3 -2 -45 -8 -95 -13 -117 -11 -180 -38 -236 -103 -50
-56 -106 -164 -106 -202 0 -36 21 -73 81 -145 38 -46 66 -68 117 -93 l67 -32
-82 -3 c-50 -2 -92 2 -105 9 -12 6 -53 13 -91 15 -81 4 -101 16 -214 122 -39
37 -83 74 -97 82 -14 7 -28 21 -32 32 -3 10 -10 18 -15 18 -5 0 -9 6 -9 13 0
7 -9 18 -20 25 -11 7 -20 22 -20 35 0 13 -5 28 -11 34 -8 8 10 13 67 18 64 6
75 10 61 20 -9 6 -63 15 -119 18 -66 4 -104 11 -109 19 -5 7 -14 13 -20 13 -7
0 -14 6 -17 13 -3 11 8 12 59 7 103 -12 114 -11 114 5 0 13 -24 22 -97 37 -33
6 -37 23 -8 30 12 3 19 8 18 12 -2 3 -10 18 -17 32 -8 17 -24 29 -42 33 -21 4
-29 11 -29 26 0 12 3 19 8 17 37 -19 104 -47 115 -47 7 0 17 -4 23 -9 5 -6 47
-26 93 -45 105 -44 157 -80 188 -128 20 -33 26 -37 43 -28 11 6 20 17 20 24 0
19 -66 81 -132 123 -32 21 -58 42 -58 47 0 5 19 6 42 3 27 -4 37 -2 27 3 -7 5
-40 12 -72 16 -47 5 -62 12 -85 38 -26 30 -269 186 -290 186 -6 0 -12 3 -14 8
-1 4 -30 20 -63 36 -33 16 -78 40 -100 54 -22 14 -110 62 -195 105 -85 44
-175 91 -200 106 -25 14 -62 35 -83 46 -44 23 -43 38 4 46 19 4 59 14 89 22
65 19 64 19 115 7z m-59 -207 c86 -43 163 -85 172 -94 10 -8 22 -14 29 -12 15
5 59 -37 65 -64 4 -13 5 -23 4 -23 -1 0 -47 16 -103 35 -56 19 -109 35 -118
35 -8 0 -23 4 -33 9 -9 5 -45 19 -79 32 -56 21 -62 26 -74 63 -7 23 -16 43
-19 46 -3 3 -11 15 -18 28 -20 37 5 28 174 -55z m-177 -10 c11 -24 10 -25 -4
-13 -12 10 -21 10 -41 1 -31 -14 -174 -15 -174 -1 0 14 13 18 85 29 107 15
120 14 134 -16z m2868 11 c-3 -3 -12 -4 -19 -1 -8 3 -5 6 6 6 11 1 17 -2 13
-5z m-3148 -68 c-10 -11 -89 -16 -89 -6 0 5 21 10 47 10 25 0 44 -2 42 -4z
m138 -22 c-3 -3 -12 -4 -19 -1 -8 3 -5 6 6 6 11 1 17 -2 13 -5z m188 -24 c18
-8 17 -9 -7 -9 -15 -1 -30 4 -33 9 -7 12 12 12 40 0z m461 -79 c0 -11 -6 -17
-13 -14 -6 3 -9 11 -6 19 7 20 19 17 19 -5z m115 -49 c-7 -2 -18 1 -23 6 -8 8
-4 9 13 5 13 -4 18 -8 10 -11z m2015 -62 c54 -17 117 -40 139 -50 22 -9 46
-19 53 -21 8 -3 -22 -23 -65 -45 -43 -23 -127 -67 -188 -99 -181 -96 -199
-104 -243 -111 -29 -4 -60 -1 -97 11 -57 17 -80 35 -48 35 17 1 17 1 0 11 -10
6 -32 7 -49 4 -43 -10 -32 16 12 28 19 5 49 22 67 38 58 51 90 62 155 55 32
-3 58 -2 58 2 0 14 -65 32 -116 32 -46 1 -48 2 -29 16 27 21 120 64 139 64 21
0 66 21 66 32 0 20 -185 1 -213 -22 -6 -5 -39 -31 -72 -58 -33 -26 -66 -55
-73 -64 -14 -20 -32 -24 -32 -8 0 45 140 173 212 194 55 17 196 -2 324 -44z
m-2051 31 c27 -6 28 -8 9 -14 -13 -5 -33 -1 -50 8 -32 16 -16 19 41 6z m-215
-32 c12 -7 11 -8 -6 -9 -46 0 -113 13 -108 22 6 10 90 0 114 -13z m325 -10
c-8 -12 -32 -12 -40 1 -11 18 5 31 26 20 11 -6 17 -15 14 -21z m-1350 -9 c-3
-5 -12 -10 -18 -10 -7 0 -6 4 3 10 19 12 23 12 15 0z m1155 0 c0 -5 -2 -10 -4
-10 -3 0 -8 5 -11 10 -3 6 -1 10 4 10 6 0 11 -4 11 -10z m282 -8 c25 -13 34
-23 28 -32 -7 -11 -13 -10 -34 3 -14 9 -32 17 -41 17 -8 0 -15 7 -15 15 0 20
18 19 62 -3z m-312 0 c0 -4 -16 -8 -35 -8 -21 0 -30 3 -22 8 16 10 57 10 57 0z
m153 -31 c-2 -7 12 -11 34 -11 27 0 34 -3 26 -11 -16 -16 -67 -2 -93 26 l-22
24 28 -8 c16 -5 28 -13 27 -20z m-123 -1 c-19 -13 -30 -13 -30 0 0 6 10 10 23
10 18 0 19 -2 7 -10z m354 -15 c3 -8 16 -15 29 -15 14 0 31 -7 38 -16 12 -15
11 -16 -11 -9 -43 12 -73 29 -78 43 -5 17 15 15 22 -3z m-132 -37 c-15 -15
-26 -4 -18 18 5 13 9 15 18 6 9 -9 9 -15 0 -24z m-219 -3 c15 -8 33 -12 41 -9
7 3 18 -7 24 -22 l12 -26 -42 7 c-24 4 -48 14 -55 22 -6 8 -16 12 -21 9 -15
-9 -64 12 -57 24 9 15 66 12 98 -5z m1402 -51 c9 -30 15 -57 12 -60 -2 -3 -8
7 -11 21 -6 25 -10 26 -47 20 -45 -8 -68 10 -69 53 0 20 5 22 49 22 l48 0 18
-56z m-1242 39 c-7 -2 -19 -2 -25 0 -7 3 -2 5 12 5 14 0 19 -2 13 -5z m97 -43
c0 -5 12 -10 27 -12 36 -4 40 -24 6 -32 -21 -6 -24 -9 -12 -17 19 -12 2 -11
-22 1 -10 6 -19 17 -19 25 0 20 -19 29 -34 16 -10 -8 -17 -7 -26 4 -11 13 -10
19 6 33 16 16 22 17 46 4 16 -7 28 -17 28 -22z m1366 -155 c4 -8 10 -12 15 -9
10 6 89 -16 89 -26 0 -9 -72 -45 -87 -43 -7 0 -10 -3 -8 -8 5 -8 -45 -39 -63
-39 -10 0 -25 117 -16 131 9 15 64 10 70 -6z m-16 -160 c-24 -26 -40 -32 -40
-15 0 8 45 38 59 40 3 0 -6 -11 -19 -25z m230 2 c-14 -6 -29 -17 -33 -24 -10
-16 -27 -17 -27 -3 0 6 15 17 33 25 38 17 63 19 27 2z m-1600 -27 c0 -5 -4
-10 -10 -10 -5 0 -10 5 -10 10 0 6 5 10 10 10 6 0 10 -4 10 -10z m1525 -20
c-6 -10 -94 -58 -197 -106 -52 -25 -56 -10 -5 20 140 80 219 114 202 86z
m-1366 -69 c8 -14 7 -20 -4 -25 -11 -4 -15 2 -15 19 0 30 6 32 19 6z m61 -75
c-1 -5 3 -12 8 -15 12 -8 42 -66 42 -83 0 -18 63 -140 106 -204 36 -54 84 -97
138 -124 43 -22 250 -20 291 3 17 9 35 17 41 17 20 0 71 66 84 107 6 21 16 47
21 59 6 11 9 26 7 34 -2 8 6 16 16 18 15 3 17 0 11 -14 -4 -11 -14 -41 -21
-68 -7 -26 -18 -53 -23 -60 -5 -6 -12 -24 -15 -41 -8 -35 -32 -55 -101 -81
-40 -15 -76 -19 -175 -19 -109 0 -130 3 -165 21 -22 12 -39 27 -37 34 1 6 -1
9 -6 6 -25 -15 -172 198 -172 249 0 8 -4 15 -8 15 -12 0 -48 81 -44 97 2 7 -1
13 -5 13 -4 0 -17 7 -28 16 -17 13 -18 16 -5 24 17 12 42 9 40 -4z m837 -122
c-3 -3 -12 -4 -19 -1 -8 3 -5 6 6 6 11 1 17 -2 13 -5z m-673 -29 c26 -39 156
-131 211 -148 116 -38 176 -29 249 37 33 30 46 33 46 11 0 -8 -4 -15 -10 -15
-5 0 -10 -6 -10 -12 0 -7 -13 -28 -28 -46 -23 -28 -37 -34 -87 -41 -152 -21
-286 43 -371 175 -19 29 -34 56 -34 59 0 14 19 3 34 -20z m609 18 c-7 -2 -19
-2 -25 0 -7 3 -2 5 12 5 14 0 19 -2 13 -5z m-313 -13 c12 -8 10 -10 -10 -10
-14 0 -32 5 -40 10 -12 8 -10 10 10 10 14 0 32 -5 40 -10z m78 -17 c-10 -2
-26 -2 -35 0 -10 3 -2 5 17 5 19 0 27 -2 18 -5z"/>
<path d="M4175 1870 c-99 -26 -157 -45 -226 -76 -107 -48 -57 -61 56 -14 19 8
69 23 223 68 64 18 82 36 40 39 -13 1 -54 -7 -93 -17z"/>
<path d="M1600 1700 c0 -5 7 -10 15 -10 8 0 15 5 15 10 0 6 -7 10 -15 10 -8 0
-15 -4 -15 -10z"/>
<path d="M1350 4401 c0 -5 5 -22 11 -38 6 -15 19 -57 29 -93 10 -36 24 -86 33
-112 13 -43 13 -46 -2 -41 -9 3 -34 20 -56 38 -22 17 -74 54 -115 82 -41 28
-84 60 -94 72 -20 22 -70 29 -81 11 -4 -6 7 -13 22 -16 20 -4 33 -15 39 -32 6
-15 24 -34 40 -42 16 -8 49 -29 74 -46 174 -122 292 -161 237 -79 -7 11 -19
39 -27 63 -12 37 -12 45 0 52 20 12 32 2 25 -21 -4 -10 -2 -19 4 -19 6 0 8 -6
6 -12 -5 -16 33 -64 42 -54 4 4 3 10 -2 14 -6 4 -11 16 -11 27 -2 21 -11 70
-14 70 -1 0 -3 7 -5 16 -1 10 -20 40 -41 68 -22 27 -46 59 -54 70 -17 22 -60
38 -60 22z m95 -161 c3 -5 1 -10 -4 -10 -6 0 -11 5 -11 10 0 6 2 10 4 10 3 0
8 -4 11 -10z"/>
<path d="M3653 4125 c-7 -8 -13 -19 -13 -25 0 -5 -5 -10 -11 -10 -6 0 -9 -7
-5 -15 3 -8 1 -15 -5 -15 -6 0 -9 -7 -5 -15 3 -8 1 -15 -4 -15 -6 0 -10 -4
-10 -10 0 -35 51 39 64 93 7 31 6 32 -11 12z"/>
<path d="M1530 4090 c0 -5 5 -10 10 -10 6 0 10 5 10 10 0 6 -4 10 -10 10 -5 0
-10 -4 -10 -10z"/>
<path d="M1556 4043 c9 -36 12 -39 25 -26 8 8 7 17 -3 32 -18 29 -30 26 -22
-6z"/>
<path d="M1574 3996 c-4 -10 -2 -22 4 -28 8 -8 13 -7 18 6 4 10 2 22 -4 28 -8
8 -13 7 -18 -6z"/>
<path d="M3585 3990 c3 -5 3 -10 -2 -10 -13 0 -32 -49 -22 -56 5 -3 16 10 24
30 18 42 18 46 4 46 -5 0 -7 -4 -4 -10z"/>
<path d="M2095 3930 c-4 -7 -3 -16 3 -22 14 -14 47 -6 47 12 0 18 -40 26 -50
10z"/>
<path d="M3542 3902 c4 -13 0 -23 -9 -26 -8 -3 -11 -11 -8 -16 4 -6 1 -17 -5
-25 -6 -8 -9 -19 -5 -25 9 -15 28 -1 21 16 -3 8 -2 14 3 14 5 0 11 14 15 30 8
45 8 44 -5 49 -8 2 -10 -3 -7 -17z"/>
<path d="M3125 3878 c10 -46 23 -56 31 -24 8 33 -1 56 -21 56 -13 0 -15 -6
-10 -32z"/>
<path d="M2722 3873 c-9 -16 -25 -28 -34 -29 -49 -2 -58 -5 -58 -19 0 -21 18
-19 75 8 34 17 49 30 50 45 2 30 -12 27 -33 -5z"/>
<path d="M2073 3877 c-22 -10 -32 -37 -15 -37 11 0 47 39 41 44 -2 2 -14 -1
-26 -7z"/>
<path d="M3062 3882 c-21 -6 -33 -28 -14 -26 22 1 62 17 62 25 0 10 -14 10
-48 1z"/>
<path d="M2547 3834 c-4 -4 -2 -13 4 -21 13 -15 69 -18 69 -3 0 6 -10 10 -23
10 -13 0 -28 5 -33 10 -6 6 -13 7 -17 4z"/>
<path d="M3156 3810 c-9 -17 -14 -35 -11 -41 4 -6 14 -56 22 -112 8 -56 21
-145 29 -197 8 -52 18 -121 22 -152 9 -62 15 -74 31 -64 11 7 8 52 -14 196 -8
52 -24 162 -35 245 -12 82 -22 151 -24 152 -1 1 -10 -11 -20 -27z"/>
<path d="M3477 3596 c-4 -10 -1 -13 9 -9 15 6 19 23 5 23 -5 0 -11 -7 -14 -14z"/>
<path d="M3225 3173 c8 -35 11 -37 30 -30 8 4 15 18 15 32 0 20 -5 25 -26 25
-24 0 -25 -3 -19 -27z"/>
<path d="M3937 3133 c-9 -9 12 -33 30 -33 11 0 11 4 3 20 -11 21 -22 25 -33
13z"/>
<path d="M845 2778 c-10 -6 -30 -24 -43 -40 -29 -34 -95 -74 -139 -83 -36 -7
-50 -22 -36 -36 14 -14 102 35 162 91 30 27 59 50 65 50 6 1 25 7 41 15 l30
13 -30 1 c-16 0 -39 -5 -50 -11z"/>
<path d="M4045 2770 c3 -5 8 -10 11 -10 2 0 4 5 4 10 0 6 -5 10 -11 10 -5 0
-7 -4 -4 -10z"/>
<path d="M132 1783 c-20 -8 -3 -23 28 -23 33 0 48 15 24 24 -18 7 -33 7 -52
-1z"/>
<path d="M210 1760 c0 -5 14 -10 30 -10 17 0 30 5 30 10 0 6 -13 10 -30 10
-16 0 -30 -4 -30 -10z"/>
<path d="M285 1750 c-3 -5 0 -13 9 -16 21 -8 61 -1 61 11 0 14 -62 19 -70 5z"/>
<path d="M380 1731 c0 -6 9 -11 20 -11 11 0 20 -4 20 -10 0 -5 -8 -10 -18 -10
-10 0 -29 -8 -42 -17 -14 -10 -25 -16 -25 -14 0 4 -59 -22 -65 -30 -3 -3 -13
-8 -22 -12 -10 -3 -18 -12 -18 -19 0 -9 19 -13 60 -14 44 -1 60 2 60 12 0 8
-11 14 -27 14 -23 1 -14 7 42 35 39 19 80 35 93 35 20 0 41 24 31 34 -2 2 -28
7 -56 11 -36 5 -53 3 -53 -4z"/>
<path d="M446 1438 c-12 -48 -8 -54 39 -56 36 -1 45 2 45 15 0 12 -7 14 -36
10 -35 -6 -35 -6 -29 24 8 34 -10 40 -19 7z"/>
<path d="M933 1440 c-13 -5 -23 -14 -23 -19 0 -12 57 6 66 20 7 11 -14 11 -43
-1z"/>
<path d="M1210 1055 c0 -16 9 -19 34 -9 25 9 19 24 -9 24 -16 0 -25 -6 -25
-15z"/>
<path d="M1270 1046 c0 -9 8 -16 19 -16 11 0 23 -5 26 -11 4 -5 12 -8 18 -6 7
2 17 -3 24 -12 9 -12 16 -13 28 -6 28 17 22 27 -25 40 -25 7 -55 16 -67 20
-17 6 -23 3 -23 -9z"/>
<path d="M1420 995 c0 -11 -11 -15 -36 -15 -19 0 -33 -4 -30 -9 8 -13 233 -14
241 -1 10 15 -45 32 -83 25 -23 -4 -32 -3 -27 4 4 7 -7 11 -29 11 -25 0 -36
-4 -36 -15z"/>
<path d="M1267 983 c-15 -15 -5 -23 28 -23 39 0 47 14 13 24 -29 7 -33 7 -41
-1z"/>
<path d="M1310 940 c-8 -5 -11 -12 -7 -16 4 -4 15 0 24 9 18 18 8 23 -17 7z"/>
<path d="M1365 940 c3 -5 -1 -10 -9 -10 -20 0 -21 -26 -2 -33 17 -7 51 28 41
42 -3 6 -13 11 -21 11 -8 0 -12 -4 -9 -10z"/>
<path d="M1413 905 c-3 -9 -3 -18 -1 -21 9 -9 59 16 53 26 -10 16 -45 12 -52
-5z"/>
<path d="M1480 884 c0 -17 22 -14 28 4 2 7 -3 12 -12 12 -9 0 -16 -7 -16 -16z"/>
<path d="M1450 830 c0 -5 5 -10 10 -10 6 0 10 5 10 10 0 6 -4 10 -10 10 -5 0
-10 -4 -10 -10z"/>
<path d="M1627 783 c-14 -13 -7 -33 11 -33 10 0 23 -5 29 -11 13 -13 73 -3 73
12 0 5 -4 9 -10 9 -5 0 -7 7 -4 15 5 11 -1 15 -24 15 -21 0 -32 -6 -35 -17 -4
-17 -5 -17 -6 0 -1 17 -21 23 -34 10z"/>
<path d="M1730 720 c0 -5 5 -10 10 -10 6 0 10 5 10 10 0 6 -4 10 -10 10 -5 0
-10 -4 -10 -10z"/>
</g>
</svg>
